<svg xmlns="http://www.w3.org/2000/svg" x="0px" y="0px" width="50" height="50" viewBox="0 0 48 48" fill="#000">
<path d="M 12.5 5 C 10.032499 5 8 7.0324991 8 9.5 L 8 27 L 7.5 27 A 1.50015 1.50015 0 0 0 6 28.5 L 6 36.5 C 6 40.071938 8.9280619 43 12.5 43 L 35.5 43 C 39.071938 43 42 40.071938 42 36.5 L 42 28.5 A 1.50015 1.50015 0 0 0 40.5 27 L 40 27 L 40 9.5 C 40 7.0324991 37.967501 5 35.5 5 L 12.5 5 z M 12.5 8 L 35.5 8 C 36.346499 8 37 8.6535009 37 9.5 L 37 27 L 29.919922 27 A 1.50015 1.50015 0 0 0 28.419922 28.5 C 28.419922 30.10675 27.841159 31.13956 27.007812 31.875 C 26.174467 32.61044 25.02588 33 24 33 C 22.97412 33 21.825533 32.61044 20.992188 31.875 C 20.158842 31.13956 19.580078 30.10675 19.580078 28.5 A 1.50015 1.50015 0 0 0 18.080078 27 L 11 27 L 11 9.5 C 11 8.6535009 11.653501 8 12.5 8 z M 16.5 13 A 1.50015 1.50015 0 1 0 16.5 16 L 25.5 16 A 1.50015 1.50015 0 1 0 25.5 13 L 16.5 13 z M 31.5 13 A 1.5 1.5 0 0 0 31.5 16 A 1.5 1.5 0 0 0 31.5 13 z M 16.5 20 A 1.50015 1.50015 0 1 0 16.5 23 L 25.5 23 A 1.50015 1.50015 0 1 0 25.5 20 L 16.5 20 z M 31.5 20 A 1.5 1.5 0 0 0 31.5 23 A 1.5 1.5 0 0 0 31.5 20 z M 9 30 L 9.2539062 30 A 1.50015 1.50015 0 0 0 9.7402344 30 L 16.894531 30 C 17.225629 31.675386 17.90699 33.153508 19.007812 34.125 C 20.440717 35.38956 22.25288 36 24 36 C 25.74712 36 27.559283 35.38956 28.992188 34.125 C 30.09301 33.153508 30.774371 31.675386 31.105469 30 L 38.253906 30 A 1.50015 1.50015 0 0 0 38.740234 30 L 39 30 L 39 36.5 C 39 38.450062 37.450062 40 35.5 40 L 12.5 40 C 10.549938 40 9 38.450062 9 36.5 L 9 30 z"></path>
</svg>